<?xml version="1.0" encoding="UTF-8"?> <svg xmlns="http://www.w3.org/2000/svg" xmlns:xlink="http://www.w3.org/1999/xlink" version="1.1" id="圖層_1" x="0px" y="0px" viewBox="0 0 274.2 53" style="enable-background:new 0 0 274.2 53;" xml:space="preserve"> <style type="text/css"> .loogoo .st0{fill:#C7012A;} </style> <g class="loogoo"> <g> <path class="st0" d="M33.1,11.7c-1.8-1.6-4-2.4-6.7-2.4c-2.8,0-5.3,0.7-7.3,2c-2,1.3-3.6,3-4.8,5c-1.2,2.1-2,4.4-2.5,6.9 c-0.5,2.5-0.6,5-0.5,7.4c0.1,1.8,0.5,3.4,1,5c0.6,1.6,1.3,2.9,2.3,4.2c1,1.2,2.3,2.2,3.7,2.9c1.5,0.7,3.3,1.1,5.3,1.1 c1.5,0,2.9-0.3,4.2-0.8c1.3-0.5,2.5-1.3,3.4-2.2c1-0.9,1.8-2,2.4-3.2c0.6-1.1,1-2.3,1.1-3.6c0-0.2,0.1-0.3,0.3-0.3h10.5 c0.2,0,0.3,0.2,0.3,0.4c-0.9,3.4-2,6.3-3.3,8.6c-1.4,2.5-3,4.5-4.8,6c-1.8,1.5-3.9,2.6-6.2,3.3c-2.3,0.7-4.8,1-7.6,1 c-7.2,0-12.9-1.9-17-5.7c-4.2-3.8-6.5-9.4-7-16.6c-0.3-4.1,0.1-8,1.1-11.7c1-3.7,2.6-6.9,4.8-9.8c2.2-2.8,4.9-5,8.3-6.7 C17.6,0.8,21.4,0,25.6,0c2.9,0,5.7,0.4,8.2,1.2c2.6,0.8,4.8,2,6.7,3.6c1.9,1.6,3.5,3.5,4.6,5.9c1.1,2.3,1.8,4.9,2,7.8 c0,0.2-0.1,0.3-0.3,0.3l-10.5,0c-0.2,0-0.3-0.1-0.3-0.3C35.8,15.5,34.8,13.3,33.1,11.7z"></path> <path class="st0" d="M172.8,1.2c7.1,0,12.6,1.7,16.5,5.1c3.8,3.4,6,8.3,6.4,14.6c0.3,4.4,0,8.5-1,12.3c-1,3.8-2.6,7.1-4.8,9.8 c-2.2,2.8-5.1,4.9-8.7,6.5c-3.6,1.6-7.8,2.3-12.6,2.3h-20.8c-0.2,0-0.3-0.2-0.3-0.3l7-50.1c0-0.2,0.2-0.3,0.3-0.3H172.8z M168.4,42.5c2.8,0,5.3-0.5,7.4-1.6c2.1-1,3.9-2.5,5.2-4.3c1.4-1.8,2.4-3.9,3-6.2c0.6-2.4,0.8-4.9,0.6-7.6c-0.1-1.8-0.4-3.5-1-5 c-0.5-1.5-1.2-2.8-2.2-3.9c-1-1.1-2.2-1.9-3.6-2.5c-1.4-0.6-3.1-0.9-5.1-0.9h-7.3c-0.6,0-1.1,0.4-1.2,1l-4.4,30.6 c0,0.2,0.1,0.3,0.3,0.3H168.4z"></path> <path class="st0" d="M216.3,1.5l-7.1,50.1c0,0.2-0.2,0.3-0.3,0.3h-10.5c-0.2,0-0.3-0.2-0.3-0.3l7-50.1c0-0.2,0.2-0.3,0.3-0.3H216 C216.2,1.2,216.3,1.4,216.3,1.5z"></path> <path class="st0" d="M218.4,26.4c0.3-4,1.2-7.7,2.8-10.9c1.6-3.3,3.7-6,6.2-8.3c2.6-2.3,5.5-4.1,9-5.3c3.4-1.2,7.1-1.8,11-1.8 c3.9,0,7.5,0.6,10.7,1.8c3.2,1.2,5.9,3,8.2,5.3c2.2,2.3,3.9,5.1,5.1,8.3c1.1,3.3,1.5,6.9,1.3,10.9c-0.3,4-1.2,7.7-2.8,10.9 c-1.6,3.3-3.6,6-6.2,8.3c-2.6,2.3-5.6,4.1-9,5.3c-3.4,1.2-7,1.8-11,1.8c-3.9,0-7.5-0.6-10.7-1.8c-3.2-1.2-6-3-8.2-5.3 c-2.2-2.3-3.9-5.1-5.1-8.3C218.6,34.1,218.1,30.4,218.4,26.4z M229.9,26.4c-0.2,2.4,0.1,4.5,0.7,6.5c0.6,2,1.5,3.7,2.8,5.1 c1.3,1.4,2.8,2.6,4.7,3.4c1.9,0.8,4,1.2,6.3,1.2c2.4,0,4.5-0.4,6.5-1.2c2-0.8,3.7-1.9,5.2-3.4c1.5-1.4,2.6-3.1,3.5-5.1 c0.9-2,1.4-4.1,1.6-6.5c0.2-2.3,0-4.5-0.6-6.5c-0.6-2-1.5-3.7-2.8-5.1c-1.3-1.4-2.9-2.6-4.7-3.4c-1.9-0.8-4-1.2-6.3-1.2 c-2.4,0-4.5,0.4-6.5,1.2c-2,0.8-3.7,1.9-5.2,3.4c-1.5,1.4-2.6,3.2-3.5,5.1C230.6,21.9,230.1,24.1,229.9,26.4z"></path> <path class="st0" d="M81.9,1.2h-11c-0.1,0-0.2,0.1-0.3,0.2l-26,50.1c-0.1,0.2,0,0.4,0.3,0.4h11c0.1,0,0.2-0.1,0.3-0.2l18.8-39.6 h0.2L79.3,34c0,0.2-0.1,0.4-0.3,0.4H68c-0.1,0-0.2,0.1-0.3,0.2l-3.6,7.7c-0.1,0.2,0,0.4,0.3,0.4h16.4c0.1,0,0.3,0.1,0.3,0.2 l1.9,8.8c0,0.1,0.1,0.2,0.3,0.2h10.4c0.2,0,0.3-0.2,0.3-0.4L82.2,1.4C82.1,1.3,82,1.2,81.9,1.2z"></path> <path class="st0" d="M143.7,8.2c-0.8-1.7-1.9-3.1-3.3-4.2c-1.4-1.1-3-1.8-4.9-2.3c-1.9-0.4-4-0.7-6.3-0.6h-23.9 c-0.2,0-0.3,0.1-0.3,0.3L98,51.5c0,0.2,0.1,0.3,0.3,0.3h10.5c0.2,0,0.3-0.1,0.3-0.3l5.7-40.7c0.1-0.6,0.6-1,1.2-1h9.5 c1.1,0,2.1,0.1,3.1,0.2c1,0.1,1.9,0.4,2.7,0.9c0.8,0.4,1.4,1.1,1.9,1.9c0.5,0.8,0.8,1.9,0.9,3.3c0.1,1.4-0.1,2.6-0.7,3.7 c-0.6,1-1.4,1.8-2.4,2.5c-1,0.6-2.2,1.1-3.6,1.4c-1.4,0.3-2.8,0.5-4.3,0.5h-7c-0.2,0-0.3,0.1-0.3,0.3l-1.1,8.6 c0,0.2,0.1,0.3,0.3,0.3h7.2c1.1,0,2.1,0.1,3,0.2c0.9,0.2,1.7,0.5,2.4,1c0.7,0.5,1.2,1.1,1.6,1.9s0.7,1.8,0.7,3 c0.1,1.7,0.1,2.9,0,4.6c-0.1,1.5-0.1,2.5,0,4.4c0,0.6,0.1,1.1,0.3,1.7c0.1,0.5,0.3,1,0.4,1.5c0,0.1,0.2,0.2,0.3,0.2l10.2,0 c0.2,0,0.4-0.2,0.3-0.4c-0.3-0.7-0.4-1.4-0.6-2.3c-0.2-1-0.3-2.1-0.4-3.2c-0.1-1.6-0.1-1.9-0.1-3.5c0-1.6,0-2.9-0.1-4.1 c-0.1-2-0.6-3.9-1.4-5.5c-0.8-1.7-2.3-2.5-3.9-3.2c-0.3-0.1-0.2-0.5,0-0.6c0.4-0.1,0.8-0.2,1.1-0.3c0.6-0.2,1.1-0.5,1.7-0.8 c1.1-0.6,2.1-1.4,3-2.3c1.7-1.7,3.1-3.9,3.8-6.3c0.5-1.6,0.6-3.2,0.5-4.9C145,12,144.5,9.9,143.7,8.2z"></path> </g> </g> </svg> 